PathFileType	4	(X/Y/Z)	 s03c0301.trc
DataRate	CameraRate	NumFrames	NumMarkers	Units	OrigDataRate	OrigDataStartFrame	OrigNumFrames
200	200	5	52	mm	200	1001	2000
Frame#	Time	racr			lacr			c7			jug			rlel			rdr			llel			ldr			s2			lic			ric			lasi			rasi			rpsi			lpsi			rgt			lgt			rth1			rth2			rth3			rth4			rlfc			rmfc			rsh1			rsh2			rsh3			rsh4			rlmal			rmmal			rcal			rtoe			rmt5			rmt1			lth1			lth2			lth4			lth3			llfc			lmfc			lsh1			lsh2			lsh3			lsh4			llmal			lmmal			lcal			ltoe			lmt1			lmt5			SBIKE			LBIKE			RBIKE			
		X1	Y1	Z1	X2	Y2	Z2	X3	Y3	Z3	X4	Y4	Z4	X5	Y5	Z5	X6	Y6	Z6	X7	Y7	Z7	X8	Y8	Z8	X9	Y9	Z9	X10	Y10	Z10	X11	Y11	Z11	X12	Y12	Z12	X13	Y13	Z13	X14	Y14	Z14	X15	Y15	Z15	X16	Y16	Z16	X17	Y17	Z17	X18	Y18	Z18	X19	Y19	Z19	X20	Y20	Z20	X21	Y21	Z21	X22	Y22	Z22	X23	Y23	Z23	X24	Y24	Z24	X25	Y25	Z25	X26	Y26	Z26	X27	Y27	Z27	X28	Y28	Z28	X29	Y29	Z29	X30	Y30	Z30	X31	Y31	Z31	X32	Y32	Z32	X33	Y33	Z33	X34	Y34	Z34	X35	Y35	Z35	X36	Y36	Z36	X37	Y37	Z37	X38	Y38	Z38	X39	Y39	Z39	X40	Y40	Z40	X41	Y41	Z41	X42	Y42	Z42	X43	Y43	Z43	X44	Y44	Z44	X45	Y45	Z45	X46	Y46	Z46	X47	Y47	Z47	X48	Y48	Z48	X49	Y49	Z49	X50	Y50	Z50	X51	Y51	Z51	X52	Y52	Z52	
1001	5.0050	725.515150	1451.986719	-148.025007	651.189555	1495.912508	-454.493907	639.013434	1569.829090	-284.667300	622.929403	1392.771863	-302.514061	641.254053	1198.670501	-8.157966	751.367780	936.326381	-40.381620	595.911137	1211.569876	-502.610662	744.126403	952.949428	-420.422773	113.444128	1315.069140	-202.656561	247.944801	1360.757919	-401.560721	304.868517	1324.788060	-41.692739	282.139312	1282.178005	-366.479049	322.753911	1260.796691	-90.952702	149.622674	1359.864540	-155.057015	141.637989	1367.881409	-236.457599	224.211485	1206.553588	-30.582450	222.794183	1255.220022	-419.485768	271.491926	1057.513381	-23.749545	320.767861	983.979352	-28.913051	329.457832	899.291940	-34.828189	353.688086	996.383809	-38.691638	345.573952	769.624077	-55.049754	345.769798	750.095742	-172.542492	251.554061	627.907202	-25.666384	228.480894	542.805546	-37.948568	165.264815	480.675519	-39.588455	255.044280	529.212299	-61.683262	92.094652	372.553170	-59.546377	121.803869	369.876405	-138.984686	24.099079	377.777284	-97.798807	240.329579	154.918296	-112.130847	145.969414	223.256132	-37.713940	174.541288	222.349511	-153.441276	323.682118	1138.474946	-449.376367	400.253682	1099.114345	-459.369124	424.999492	1124.967519	-450.985246	448.141582	1023.541869	-460.946849	557.879271	939.182905	-449.299279	567.497753	928.306954	-319.413573	455.962880	795.411607	-458.705982	428.314790	717.120975	-436.232013	360.018568	658.618814	-428.264895	455.638655	702.321717	-413.542585	284.890237	556.051666	-404.815845	319.491204	566.619697	-314.916674	208.469765	525.454749	-355.641262	506.132519	443.311820	-349.160712	412.640043	461.108103	-309.199608	386.494897	449.552501	-425.176100	-212.080654	947.299373	-227.914263	-4.670656	84.479166	-432.896260	-9.314123	81.595041	-32.364652	
1002	5.0100	725.235686	1451.989385	-148.841651	650.201717	1495.806427	-456.096919	638.839343	1569.997346	-286.033265	621.975441	1392.952026	-303.265468	640.780000	1199.177697	-8.220968	750.915095	936.530052	-40.430846	593.933235	1212.004109	-503.710571	743.419327	953.649845	-421.456314	112.740215	1317.652956	-203.927945	247.586612	1361.148684	-402.457630	303.771269	1328.308978	-41.622062	281.075108	1281.847069	-366.508902	321.786382	1263.485303	-90.205893	148.795315	1363.045260	-155.998740	141.282446	1370.035152	-238.009172	223.593206	1210.715049	-29.924608	221.411557	1254.190061	-419.182385	274.952195	1060.921606	-22.934283	325.779515	988.378309	-28.450277	336.380034	903.930389	-33.990955	358.307179	1001.497666	-38.513942	354.347796	774.159445	-53.135250	354.704802	754.143631	-170.506295	255.858343	634.382483	-24.133374	230.420138	549.954493	-36.923748	165.632925	489.630556	-38.948495	256.878248	535.660367	-60.429004	89.792233	382.881912	-59.384484	117.821758	379.041581	-139.501054	21.949222	389.412560	-97.967108	232.981454	161.301800	-111.834696	140.211808	231.991316	-37.616724	168.951748	230.476304	-153.151075	320.364716	1134.949269	-448.625182	396.107349	1094.087630	-458.537754	421.578377	1119.616989	-451.116906	442.587399	1017.579430	-458.974209	550.826139	931.749850	-447.573096	561.179702	921.151556	-319.935386	452.104995	785.601932	-457.200907	426.242534	706.857722	-434.456324	359.505743	646.564544	-426.470406	454.157714	692.402314	-410.625224	286.514428	542.867604	-402.949120	321.256459	554.039473	-313.350357	211.105370	509.832181	-353.003204	511.650851	438.830457	-352.730995	417.915440	452.733416	-309.646287	390.473959	440.566713	-425.932813	-212.046427	947.351473	-228.198507	-4.698226	84.450647	-432.937559	-9.326661	81.633067	-32.382782	
1003	5.0150	724.881383	1451.967301	-149.535146	649.538416	1495.526791	-457.704901	638.743874	1570.033468	-287.430386	621.192973	1392.991548	-303.996356	640.906213	1199.697247	-8.151092	750.578229	936.622665	-40.339738	592.618315	1212.355662	-504.739430	742.812411	954.053060	-422.236723	111.932059	1319.595006	-204.934556	247.435630	1361.065346	-403.350381	302.703598	1331.528322	-41.660444	279.960822	1281.290752	-366.702829	320.856944	1265.863732	-89.478497	148.654696	1365.413968	-158.099642	140.967501	1371.871160	-239.525238	223.275003	1214.637752	-29.362690	219.905918	1252.699876	-418.729080	278.601027	1064.079883	-21.999540	330.921287	992.656846	-27.965988	343.380379	908.465688	-33.141289	362.973634	1006.412669	-38.197873	363.029132	778.742102	-51.339459	363.879104	758.137957	-168.200354	260.655027	640.737596	-22.633652	233.066799	557.156718	-35.734186	166.673266	498.540272	-38.025823	259.248505	542.126267	-58.950793	88.445822	393.351801	-58.525085	117.372049	389.938374	-137.963676	20.903063	401.185089	-97.375070	226.102760	167.785659	-111.795576	135.094327	240.675469	-37.462291	163.875453	238.622054	-152.952924	316.869464	1130.944859	-447.813023	391.781604	1088.431509	-457.593745	417.774822	1113.602885	-450.904242	436.774702	1011.060259	-456.949534	543.502155	923.622679	-446.040573	552.597444	914.107384	-315.540901	447.894882	775.360053	-455.421861	424.015083	696.076485	-432.510548	358.866198	634.043299	-424.454779	452.209578	682.447724	-408.572438	288.205071	529.139835	-400.807246	322.314247	541.095438	-312.241607	213.656886	494.206068	-350.489421	516.688598	432.481093	-353.949591	422.764390	443.810142	-310.016508	394.148666	431.628109	-426.955749	-212.014832	947.367653	-228.535344	-4.721447	84.413214	-432.979156	-9.350681	81.686734	-32.415875	
1004	5.0200	724.466749	1451.958406	-150.202249	649.194456	1495.217102	-459.158055	638.715781	1569.956754	-288.767015	620.636370	1392.912884	-304.730491	641.256797	1200.239145	-7.778215	750.338529	936.741077	-40.257312	591.839864	1212.718077	-505.724984	742.069853	954.542412	-422.811499	112.484320	1320.707016	-206.220179	247.401539	1360.497206	-404.359750	301.700315	1334.343110	-41.869389	278.831544	1280.339649	-366.890881	320.054424	1267.878485	-89.032983	148.701895	1367.423396	-160.701217	140.811326	1373.012842	-241.204903	223.201091	1218.208762	-28.783182	218.346209	1250.821222	-418.352829	281.985129	1067.158325	-21.374396	336.022367	996.880931	-27.380154	350.809874	912.988039	-32.171976	367.710528	1011.301563	-37.734126	371.544969	783.261508	-49.531554	373.096548	762.147870	-165.966723	265.888994	646.849802	-21.118857	235.899347	564.190032	-34.761767	168.369284	507.116001	-36.859473	262.056175	548.483377	-57.571579	87.910686	403.189505	-57.789265	118.566575	400.342888	-136.163534	20.074156	412.599748	-97.214571	219.877685	174.491568	-111.758398	130.631437	249.524531	-37.326490	159.709888	247.197493	-152.406836	313.369330	1126.553795	-447.460097	387.172430	1082.396853	-456.704221	413.555508	1107.258001	-450.986770	430.705358	1004.108692	-455.027778	535.753100	915.118350	-444.163157	545.541807	906.397267	-314.981542	443.351651	764.603900	-453.426225	421.553418	684.894053	-430.175444	358.073744	621.191284	-422.156104	449.737306	672.325032	-406.849914	289.527985	515.645017	-398.813890	327.100578	528.603373	-306.583409	216.059043	478.463168	-348.216123	521.047521	425.520918	-355.324055	427.146716	434.404284	-310.260041	397.827183	421.495931	-426.496966	-211.937836	947.388581	-228.840440	-4.735277	84.358424	-433.002747	-9.343622	81.716227	-32.443764	
1005	5.0250	724.217730	1451.973682	-150.716250	649.122863	1494.743804	-460.537379	638.745299	1569.646939	-290.096311	620.495110	1392.559444	-305.364004	642.028452	1200.691234	-7.238894	750.249297	936.850726	-40.120341	591.645588	1212.941084	-506.614705	741.620481	954.803797	-423.523299	112.498539	1322.256632	-207.870788	248.367343	1360.194433	-406.838639	300.866838	1336.758113	-42.209941	277.805983	1279.062533	-367.103752	319.351680	1269.484582	-88.803191	148.311990	1368.729623	-160.292345	140.616563	1373.661909	-242.669823	223.275789	1221.211092	-28.451493	216.683413	1248.587182	-418.015036	285.656751	1070.062811	-20.394357	341.131525	1000.918513	-26.703693	357.710526	917.320438	-31.228375	372.402924	1015.965010	-37.098494	379.862126	787.626553	-47.655127	382.120169	766.276319	-164.460944	271.437391	652.730232	-19.539846	239.496997	570.823367	-33.319901	170.685970	515.398201	-35.502103	265.326810	554.520676	-56.237920	87.639700	413.265105	-56.722943	119.517173	408.031227	-135.891609	20.198624	424.445425	-96.262396	214.240890	181.597877	-111.759319	126.896975	258.488279	-37.064130	151.714013	253.783861	-154.848727	309.653944	1121.804637	-446.707642	382.463625	1075.988625	-455.704897	409.422889	1100.471741	-450.670976	424.477942	996.956789	-453.174034	527.645935	906.365034	-442.672422	539.057401	897.631104	-315.262577	438.481445	753.612817	-451.471227	418.739545	673.519885	-427.755787	357.062981	608.166001	-419.782584	447.316747	661.862054	-404.491009	290.555406	502.146634	-396.800188	328.578104	515.181594	-304.358931	218.195482	462.816911	-345.814222	524.896980	418.060854	-356.557684	431.046993	424.572737	-310.384165	400.828965	410.994094	-425.922353	-211.867580	947.354180	-229.087520	-4.754947	84.263485	-433.030254	-9.330271	81.683665	-32.482246	
